<svg width="151" height="50" viewBox="0 0 151 50" fill="none" xmlns="http://www.w3.org/2000/svg">
<g filter="url(#filter0_ddd_4_3147)">
<path d="M58.1952 34.396C56.3912 34.396 54.7082 34.077 53.1462 33.439C51.5842 32.801 50.2202 31.91 49.0542 30.766C47.8882 29.622 46.9752 28.28 46.3152 26.74C45.6772 25.178 45.3582 23.495 45.3582 21.691C45.3582 19.865 45.6772 18.182 46.3152 16.642C46.9532 15.102 47.8552 13.76 49.0212 12.616C50.1872 11.472 51.5512 10.592 53.1132 9.976C54.6752 9.338 56.3692 9.019 58.1952 9.019C60.0212 9.019 61.7152 9.338 63.2772 9.976C64.8392 10.614 66.2032 11.505 67.3692 12.649C68.5352 13.771 69.4372 15.102 70.0752 16.642C70.7352 18.182 71.0652 19.865 71.0652 21.691C71.0652 23.495 70.7352 25.178 70.0752 26.74C69.4152 28.28 68.5022 29.622 67.3362 30.766C66.1702 31.91 64.8062 32.801 63.2442 33.439C61.7042 34.077 60.0212 34.396 58.1952 34.396ZM58.1952 30.304C59.4052 30.304 60.5162 30.095 61.5282 29.677C62.5402 29.237 63.4202 28.632 64.1682 27.862C64.9382 27.092 65.5212 26.179 65.9172 25.123C66.3352 24.067 66.5442 22.923 66.5442 21.691C66.5442 20.459 66.3352 19.326 65.9172 18.292C65.5212 17.236 64.9382 16.323 64.1682 15.553C63.4202 14.761 62.5402 14.156 61.5282 13.738C60.5162 13.32 59.4052 13.111 58.1952 13.111C57.0072 13.111 55.9072 13.32 54.8952 13.738C53.8832 14.156 52.9922 14.761 52.2222 15.553C51.4742 16.323 50.8912 17.236 50.4732 18.292C50.0552 19.326 49.8462 20.459 49.8462 21.691C49.8462 22.923 50.0552 24.067 50.4732 25.123C50.8912 26.179 51.4742 27.092 52.2222 27.862C52.9922 28.632 53.8832 29.237 54.8952 29.677C55.9072 30.095 57.0072 30.304 58.1952 30.304ZM81.0949 34.396C79.7089 34.396 78.4989 34.088 77.4649 33.472C76.4529 32.856 75.6719 31.998 75.1219 30.898C74.5939 29.798 74.3299 28.511 74.3299 27.037V16.048H78.6529V26.674C78.6529 27.422 78.7959 28.082 79.0819 28.654C79.3899 29.204 79.8189 29.644 80.3689 29.974C80.9409 30.282 81.5789 30.436 82.2829 30.436C82.9869 30.436 83.6139 30.282 84.1639 29.974C84.7139 29.644 85.1429 29.193 85.4509 28.621C85.7589 28.049 85.9129 27.367 85.9129 26.575V16.048H90.2359V34H86.1439V30.469L86.5069 31.096C86.0889 32.196 85.3959 33.021 84.4279 33.571C83.4819 34.121 82.3709 34.396 81.0949 34.396ZM102.438 34.198C100.414 34.198 98.8414 33.648 97.7194 32.548C96.6194 31.426 96.0694 29.853 96.0694 27.829V19.909H92.9674V16.048H93.2974C94.1774 16.048 94.8594 15.817 95.3434 15.355C95.8274 14.893 96.0694 14.222 96.0694 13.342V11.956H100.392V16.048H104.517V19.909H100.392V27.598C100.392 28.192 100.491 28.698 100.689 29.116C100.909 29.534 101.239 29.853 101.679 30.073C102.141 30.293 102.724 30.403 103.428 30.403C103.582 30.403 103.758 30.392 103.956 30.37C104.176 30.348 104.385 30.326 104.583 30.304V34C104.275 34.044 103.923 34.088 103.527 34.132C103.131 34.176 102.768 34.198 102.438 34.198ZM107.886 34V9.019H112.209V34H107.886ZM118.28 34V19.909H115.112V16.048H118.28V15.454C118.28 14.09 118.555 12.935 119.105 11.989C119.677 11.021 120.469 10.284 121.481 9.778C122.493 9.272 123.692 9.019 125.078 9.019C125.342 9.019 125.628 9.041 125.936 9.085C126.266 9.107 126.541 9.14 126.761 9.184V12.913C126.541 12.869 126.332 12.847 126.134 12.847C125.958 12.825 125.793 12.814 125.639 12.814C124.671 12.814 123.923 13.034 123.395 13.474C122.867 13.892 122.603 14.552 122.603 15.454V16.048H126.596V19.909H122.603V34H118.28ZM131.785 41.293C131.301 41.293 130.828 41.249 130.366 41.161C129.904 41.095 129.486 40.974 129.112 40.798V37.168C129.398 37.234 129.739 37.3 130.135 37.366C130.553 37.432 130.938 37.465 131.29 37.465C132.28 37.465 132.995 37.234 133.435 36.772C133.897 36.31 134.304 35.705 134.656 34.957L135.844 32.185L135.778 35.815L127.957 16.048H132.61L138.088 30.634H136.438L141.883 16.048H146.569L138.748 35.815C138.286 36.981 137.725 37.971 137.065 38.785C136.405 39.599 135.635 40.215 134.755 40.633C133.897 41.073 132.907 41.293 131.785 41.293Z" fill="#F8F0F0"/>
</g>
<mask id="mask0_4_3147" style="mask-type:luminance" maskUnits="userSpaceOnUse" x="0" y="1" width="41" height="40">
<path d="M0 1H41V41H0V1Z" fill="white"/>
</mask>
<g mask="url(#mask0_4_3147)">
<path d="M20.5194 2.57059C24.867 2.57059 28.6702 4.8829 30.7066 8.31354C29.7288 8.08988 28.7123 7.97311 27.6671 7.97311C25.0407 7.97311 22.5878 8.71647 20.5194 9.99597C18.4509 8.71647 15.9998 7.97311 13.3733 7.97311C12.3282 7.97311 11.3099 8.08988 10.3339 8.31354C12.3703 4.8829 16.1734 2.57059 20.5194 2.57059ZM32.2828 14.0466C32.2828 16.0777 31.74 17.9854 30.7875 19.6416C29.4254 18.0512 27.6857 16.78 25.7015 15.9642C24.8637 14.0285 23.5622 12.3297 21.9321 11.0025C23.6297 10.0733 25.5852 9.54371 27.6671 9.54371C29.0478 9.54371 30.3728 9.77724 31.6051 10.2048C32.0434 11.407 32.2828 12.6997 32.2828 14.0466ZM31.6051 31.833C30.3728 32.2606 29.0478 32.4958 27.6671 32.4958C25.5885 32.4958 23.6347 31.9662 21.9371 31.0386C22.2456 30.7887 22.5423 30.5239 22.8289 30.2443C24.0764 29.0273 25.0474 27.6113 25.7099 26.0703C27.6907 25.2546 29.4288 23.985 30.7875 22.3963C31.74 24.0524 32.2828 25.9618 32.2828 27.9912C32.2828 29.3381 32.0434 30.6308 31.6051 31.833ZM8.75597 27.9912C8.75597 25.9601 9.30048 24.0524 10.253 22.3963C11.6134 23.9866 13.3548 25.2579 15.339 26.0736C16.1768 28.0126 17.4816 29.7115 19.1134 31.0403C17.3805 31.9892 15.4165 32.4941 13.3733 32.4941C11.9927 32.4941 10.6677 32.2606 9.43534 31.833C8.99704 30.6308 8.75597 29.3381 8.75597 27.9912ZM9.43534 10.2048C10.6677 9.77724 11.9927 9.54371 13.3733 9.54371C15.4536 9.54371 17.4108 10.0733 19.1084 11.0025C17.4782 12.3297 16.1751 14.0285 15.339 15.9642C13.3548 16.78 11.6134 18.0512 10.253 19.6416C9.30048 17.9854 8.75597 16.0777 8.75597 14.0466C8.75597 12.6997 8.99704 11.407 9.43534 10.2048ZM23.5605 15.285C22.5828 15.063 21.5646 14.9446 20.5194 14.9446C19.4742 14.9446 18.4577 15.063 17.4799 15.285C18.2587 13.9743 19.2938 12.828 20.5194 11.9103C21.745 12.828 22.7817 13.9743 23.5605 15.285ZM25.1368 21.0197C25.1368 22.3469 24.9058 23.6412 24.4641 24.8582C23.2318 25.2875 21.9034 25.5227 20.5194 25.5227C19.1387 25.5227 17.8137 25.2891 16.5814 24.8615C16.1431 23.6593 15.9037 22.3667 15.9037 21.0197C15.9037 19.6728 16.1431 18.3785 16.5814 17.1779C17.8137 16.7487 19.1387 16.5152 20.5194 16.5152C21.9 16.5152 23.2268 16.7487 24.4574 17.1779C24.8974 18.3785 25.1368 19.6728 25.1368 21.0197ZM14.6427 18.0529C14.4135 19.0067 14.2938 20.0001 14.2938 21.0197C14.2938 22.0394 14.4135 23.0311 14.6427 23.985C13.2992 23.2251 12.1242 22.2154 11.1835 21.0197C12.1242 19.8241 13.2992 18.8127 14.6427 18.0529ZM17.4799 26.7528C18.4577 26.9748 19.4742 27.0932 20.5194 27.0932C21.5679 27.0932 22.5895 26.9748 23.569 26.7512C23.0582 27.6113 22.4311 28.4122 21.691 29.1342C21.3218 29.4944 20.9324 29.8266 20.5261 30.1325C19.2972 29.2131 18.2587 28.0652 17.4799 26.7528ZM26.4011 23.9833C26.6287 23.0229 26.7467 22.0295 26.7467 21.0197C26.7467 20.0001 26.6253 19.0067 26.3977 18.0529C27.7413 18.8127 28.9163 19.8241 29.857 21.0197C28.9163 22.2137 27.743 23.2235 26.4011 23.9833ZM1.60993 21.0197C1.60993 16.7783 3.98014 13.0681 7.495 11.0814C7.26742 12.0353 7.14605 13.027 7.14605 14.0466C7.14605 16.6089 7.90802 19.0018 9.22125 21.0197C7.90802 23.0377 7.14605 25.4289 7.14605 27.9912C7.14605 29.0109 7.26742 30.0042 7.495 30.9564C3.98014 28.9697 1.60993 25.2595 1.60993 21.0197ZM20.5194 39.4672C16.1734 39.4672 12.3703 37.1549 10.3339 33.7259C11.3099 33.9479 12.3282 34.0647 13.3733 34.0647C15.9459 34.0647 18.4088 33.3608 20.5278 32.0468C22.5946 33.3246 25.044 34.0647 27.6671 34.0647C28.7123 34.0647 29.7288 33.9479 30.7066 33.7259C28.6702 37.1549 24.867 39.4672 20.5194 39.4672ZM33.5438 30.9564C33.7714 30.0042 33.8927 29.0109 33.8927 27.9912C33.8927 25.4289 33.1308 23.0377 31.8175 21.0197C33.1308 19.0018 33.8927 16.6089 33.8927 14.0466C33.8927 13.027 33.7714 12.0353 33.5438 11.0814C37.0603 13.0681 39.4289 16.7783 39.4289 21.0197C39.4289 25.2595 37.0603 28.9697 33.5438 30.9564Z" fill="url(#paint0_linear_4_3147)"/>
</g>
<mask id="mask1_4_3147" style="mask-type:luminance" maskUnits="userSpaceOnUse" x="19" y="18" width="3" height="7">
<path d="M19.1455 18.7962H21.7349V24.3435H19.1455V18.7962Z" fill="white"/>
</mask>
<g mask="url(#mask1_4_3147)">
<path d="M20.6391 21.9095V22.9554L21.3454 22.0081L21.5461 22.1496L20.6391 23.3649V24.3089H20.393V23.3551L19.4944 22.1496L19.6934 22.0081L20.393 22.9439V21.898L19.4944 20.6941L19.6934 20.551L20.393 21.4884V20.4162L20.3896 20.4178L19.4708 19.1696L19.6715 19.0281L20.393 20.0083V18.8242H20.6391V20.0182L21.369 19.0281L21.5697 19.1696L20.6509 20.4178L20.6391 20.4112V21.4983L21.3454 20.5527L21.5461 20.6941L20.6391 21.9095Z" fill="#EE9D21"/>
</g>
<mask id="mask2_4_3147" style="mask-type:luminance" maskUnits="userSpaceOnUse" x="18" y="17" width="5" height="7">
<path d="M18.8892 17.7305H22.1175V23.0064H18.8892V17.7305Z" fill="white"/>
</mask>
<g mask="url(#mask2_4_3147)">
<path d="M20.5059 17.7305C20.8363 17.7305 21.1043 17.992 21.1043 18.3144C21.1043 18.6367 20.8363 18.8982 20.5059 18.8982C20.1755 18.8982 19.9074 18.6367 19.9074 18.3144C19.9074 17.992 20.1755 17.7305 20.5059 17.7305ZM21.5477 18.4657C21.8781 18.4657 22.1462 18.7272 22.1462 19.0511C22.1462 19.3735 21.8781 19.635 21.5477 19.635C21.2173 19.635 20.9492 19.3735 20.9492 19.0511C20.9492 18.7272 21.2173 18.4657 21.5477 18.4657ZM19.491 18.4657C19.8215 18.4657 20.0895 18.7272 20.0895 19.0511C20.0895 19.3735 19.8215 19.635 19.491 19.635C19.1606 19.635 18.8926 19.3735 18.8926 19.0511C18.8926 18.7272 19.1606 18.4657 19.491 18.4657ZM21.5477 20.0889C21.8781 20.0889 22.1462 20.3504 22.1462 20.6744C22.1462 20.9967 21.8781 21.2582 21.5477 21.2582C21.2173 21.2582 20.9492 20.9967 20.9492 20.6744C20.9492 20.3504 21.2173 20.0889 21.5477 20.0889ZM19.491 20.0889C19.8215 20.0889 20.0895 20.3504 20.0895 20.6744C20.0895 20.9967 19.8215 21.2582 19.491 21.2582C19.1606 21.2582 18.8926 20.9967 18.8926 20.6744C18.8926 20.3504 19.1606 20.0889 19.491 20.0889ZM21.5477 21.6381C21.8781 21.6381 22.1462 21.8996 22.1462 22.2219C22.1462 22.5443 21.8781 22.8058 21.5477 22.8058C21.2173 22.8058 20.9492 22.5443 20.9492 22.2219C20.9492 21.8996 21.2173 21.6381 21.5477 21.6381ZM19.491 21.6381C19.8215 21.6381 20.0895 21.8996 20.0895 22.2219C20.0895 22.5443 19.8215 22.8058 19.491 22.8058C19.1606 22.8058 18.8926 22.5443 18.8926 22.2219C18.8926 21.8996 19.1606 21.6381 19.491 21.6381Z" fill="white"/>
</g>
<defs>
<filter id="filter0_ddd_4_3147" x="41.3582" y="9.019" width="109.211" height="40.274" filterUnits="userSpaceOnUse" color-interpolation-filters="sRGB">
<feFlood flood-opacity="0" result="BackgroundImageFix"/>
<feColorMatrix in="SourceAlpha" type="matrix" values="0 0 0 0 0 0 0 0 0 0 0 0 0 0 0 0 0 0 127 0" result="hardAlpha"/>
<feOffset dy="4"/>
<feGaussianBlur stdDeviation="2"/>
<feComposite in2="hardAlpha" operator="out"/>
<feColorMatrix type="matrix" values="0 0 0 0 0 0 0 0 0 0 0 0 0 0 0 0 0 0 0.25 0"/>
<feBlend mode="normal" in2="BackgroundImageFix" result="effect1_dropShadow_4_3147"/>
<feColorMatrix in="SourceAlpha" type="matrix" values="0 0 0 0 0 0 0 0 0 0 0 0 0 0 0 0 0 0 127 0" result="hardAlpha"/>
<feOffset dy="4"/>
<feGaussianBlur stdDeviation="2"/>
<feComposite in2="hardAlpha" operator="out"/>
<feColorMatrix type="matrix" values="0 0 0 0 0 0 0 0 0 0 0 0 0 0 0 0 0 0 0.25 0"/>
<feBlend mode="normal" in2="effect1_dropShadow_4_3147" result="effect2_dropShadow_4_3147"/>
<feColorMatrix in="SourceAlpha" type="matrix" values="0 0 0 0 0 0 0 0 0 0 0 0 0 0 0 0 0 0 127 0" result="hardAlpha"/>
<feOffset dy="4"/>
<feGaussianBlur stdDeviation="2"/>
<feComposite in2="hardAlpha" operator="out"/>
<feColorMatrix type="matrix" values="0 0 0 0 0 0 0 0 0 0 0 0 0 0 0 0 0 0 0.25 0"/>
<feBlend mode="normal" in2="effect2_dropShadow_4_3147" result="effect3_dropShadow_4_3147"/>
<feBlend mode="normal" in="SourceGraphic" in2="effect3_dropShadow_4_3147" result="shape"/>
</filter>
<linearGradient id="paint0_linear_4_3147" x1="20.5194" y1="1" x2="20.5194" y2="41.0378" gradientUnits="userSpaceOnUse">
<stop stop-color="#701EFC"/>
<stop offset="1" stop-color="#CBB3F3"/>
</linearGradient>
</defs>
</svg>
